#!OML:ASF F:\VICON\USERDATA\INSTALL\Justin_Nancy\Justin_Nancy.ASF
:FULLY-SPECIFIED
:DEGREES
64
root -7.93438 17.568 -20.7727 -2.1078 -5.54854 2.42043
lowerback 6.41372 0.448015 -2.42655
upperback 0.968286 0.461391 1.17864
thorax -2.62605 0.256372 2.54021
lowerneck -15.0178 -2.93168 -9.80391
upperneck 22.6804 -2.73709 4.57909
head 9.89308 -1.59848 2.89609
rclavicle -6.88292e-015 -5.56597e-015
rhumerus -28.339 -16.0799 -77.751
rradius 27.8195
rwrist 10.6202
rhand -14.6775 12.48
rfingers 7.12502
rthumb 11.4758 -17.1859
lclavicle -6.88292e-015 -5.56597e-015
lhumerus -33.8595 11.0837 83.76
lradius 21.0332
lwrist -17.6497
lhand -11.2097 30.6491
lfingers 7.12502
lthumb 14.8185 60.0992
rfemur -12.3473 -2.98489 18.4633
rtibia 67.9921
rfoot 5.70487 -6.16081
rtoes 14.1878
lfemur -13.5906 0.258327 -28.3902
ltibia 22.126
lfoot -4.15917 -0.766614
ltoes 7.07931
65
root -7.92856 17.5668 -20.6267 -2.06884 -5.38306 2.53015
lowerback 6.24925 0.328303 -2.54962
upperback 0.971809 0.299212 1.24697
thorax -2.52134 0.175374 2.69446
lowerneck -14.8338 -2.80117 -10.0592
upperneck 22.7394 -2.53077 4.6657
head 9.86787 -1.51848 2.99846
rclavicle 2.34566e-014 1.59028e-015
rhumerus -28.4699 -15.9787 -77.648
rradius 27.7241
rwrist 10.7862
rhand -14.8482 12.4227
rfingers 7.12502
rthumb 11.3112 -17.2523
lclavicle 2.34566e-014 1.59028e-015
lhumerus -33.4954 11.5199 83.6378
lradius 21.1639
lwrist -18.5675
lhand -11.5533 29.6675
lfingers 7.12502
lthumb 14.4874 59.1418
rfemur -13.7084 -3.19926 18.2662
rtibia 68.8619
rfoot 4.2142 -7.26708
rtoes 13.3075
lfemur -13.1413 0.193424 -28.588
ltibia 22.1837
lfoot -4.80841 -1.15847
ltoes 7.45732
66
root -7.92803 17.5606 -20.4854 -1.92813 -5.18019 2.61718
lowerback 5.96364 0.234852 -2.76605
upperback 0.93156 0.169563 1.33268
thorax -2.39552 0.111478 2.91585
lowerneck -14.3635 -2.74628 -10.1383
upperneck 22.7143 -2.47415 4.61806
head 9.76639 -1.50909 3.00335
rclavicle 9.56651e-015 -4.77083e-015
rhumerus -28.593 -16.4936 -77.3218
rradius 27.3899
rwrist 11.3239
rhand -15.2951 11.6954
rfingers 7.12502
rthumb 10.8802 -18.0028
lclavicle 9.56651e-015 -4.77083e-015
lhumerus -33.0384 11.7537 83.5872
lradius 21.2069
lwrist -19.4062
lhand -11.9781 28.844
lfingers 7.12502
lthumb 14.0781 58.3472
rfemur -15.1211 -3.36157 18.1565
rtibia 69.5746
rfoot 3.1533 -7.73252
rtoes 12.1587
lfemur -12.8325 0.29714 -28.7499
ltibia 22.3627
lfoot -5.3913 -1.33224
ltoes 5.62696
67
root -7.92485 17.5507 -20.3456 -1.8993 -5.07964 2.78263
lowerback 5.84449 0.248562 -2.87605
upperback 0.973034 0.182022 1.25028
thorax -2.28705 0.115923 2.89143
lowerneck -14.2384 -2.75873 -9.92452
upperneck 22.7736 -2.52874 4.49238
head 9.76324 -1.53243 2.91739
rclavicle -4.02539e-015 -1.35174e-014
rhumerus -28.7727 -17.3306 -77.0325
rradius 27.1658
rwrist 11.6698
rhand -15.1705 11.9221
rfingers 7.12502
rthumb 11.0003 -17.7697
lclavicle -4.02539e-015 -1.35174e-014
lhumerus -32.3391 11.1818 83.7311
lradius 21.4141
lwrist -19.2756
lhand -12.4849 28.3155
lfingers 7.12502
lthumb 13.5897 57.852
rfemur -16.4574 -3.39986 17.9333
rtibia 70.0784
rfoot 2.44143 -7.62628
rtoes 11.144
lfemur -12.4856 0.389624 -29.0038
ltibia 22.6581
lfoot -5.88215 -1.07995
ltoes 4.51605
68
root -7.92259 17.5432 -20.2052 -1.99668 -4.95941 2.85618
lowerback 5.96487 0.238992 -2.85245
upperback 1.03601 0.166228 1.18414
thorax -2.28799 0.106802 2.81095
lowerneck -14.4892 -2.75603 -9.89018
upperneck 23.1153 -2.52791 4.55566
head 9.93213 -1.52596 2.93865
rclavicle -7.87684e-015 3.18055e-015
rhumerus -28.8882 -17.9615 -76.8376
rradius 26.9411
rwrist 11.7855
rhand -14.7446 12.856
rfingers 7.12502
rthumb 11.4111 -16.8135
lclavicle -7.87684e-015 3.18055e-015
lhumerus -31.8917 10.5694 83.9038
lradius 21.9828
lwrist -18.3816
lhand -13.2225 27.9196
lfingers 7.12502
lthumb 12.8787 57.5023
rfemur -17.4876 -3.3152 17.8009
rtibia 70.3218
rfoot 1.7488 -7.49616
rtoes 11.7585
lfemur -12.092 0.513914 -29.1697
ltibia 22.9865
lfoot -6.66743 -0.91394
ltoes 6.26367
69
root -7.92151 17.5371 -20.0625 -2.06631 -4.80732 2.87826
lowerback 6.07803 0.176208 -2.90305
upperback 1.07359 0.0784259 1.25788
thorax -2.30643 0.063379 2.92294
lowerneck -14.7021 -2.79645 -10.0361
upperneck 23.3219 -2.52024 4.52682
head 10.0492 -1.54045 2.95623
rclavicle -9.93923e-015 2.38542e-015
rhumerus -29.0234 -18.203 -76.6397
rradius 26.8721
rwrist 11.6685
rhand -14.9243 12.7461
rfingers 7.12502
rthumb 11.2378 -16.9329
lclavicle -9.93923e-015 2.38542e-015
lhumerus -31.7028 10.1768 84.1549
lradius 22.8821
lwrist -17.4081
lhand -13.7995 27.9954
lfingers 7.12502
lthumb 12.3225 57.6123
rfemur -18.542 -3.24812 17.7309
rtibia 70.3668
rfoot 1.08529 -7.21587
rtoes 12.9739
lfemur -11.7419 0.685524 -29.2872
ltibia 23.3674
lfoot -7.52554 -0.953779
ltoes 6.6963
70
root -7.91626 17.5233 -19.9212 -2.0616 -4.52214 3.10818
lowerback 6.03486 0.0427514 -3.08161
upperback 1.0873 -0.110755 1.20623
thorax -2.25415 -0.0309315 2.98497
lowerneck -14.6787 -2.78804 -9.92454
upperneck 23.2859 -2.51025 4.41196
head 10.0281 -1.53869 2.89725
rclavicle -4.5472e-015 1.11319e-014
rhumerus -29.2223 -18.1321 -76.6682
rradius 26.9629
rwrist 11.3578
rhand -15.094 12.8264
rfingers 7.12502
rthumb 11.0741 -16.8615
lclavicle -4.5472e-015 1.11319e-014
lhumerus -31.5713 9.83216 84.2065
lradius 23.8503
lwrist -16.9406
lhand -13.78 28.3316
lfingers 7.12502
lthumb 12.3412 57.9474
rfemur -19.7275 -3.38766 17.3812
rtibia 70.2803
rfoot 0.293992 -6.46691
rtoes 12.6899
lfemur -11.3527 0.568584 -29.6217
ltibia 23.8181
lfoot -8.18768 -0.888446
ltoes 6.43468
71
root -7.91538 17.5035 -19.7861 -1.92658 -4.10358 3.23427
lowerback 6.05987 -0.1202 -3.25327
upperback 0.953894 -0.339967 1.22588
thorax -2.38753 -0.13934 3.12113
lowerneck -14.5559 -2.75918 -9.80426
upperneck 23.3371 -2.46985 4.23362
head 10.0163 -1.53215 2.81993
rclavicle -3.8266e-015 -3.18055e-015
rhumerus -29.5635 -17.8104 -76.6339
rradius 27.1508
rwrist 10.9155
rhand -15.0385 13.3199
rfingers 7.12502
rthumb 11.1276 -16.3651
lclavicle -3.8266e-015 -3.18055e-015
lhumerus -31.4882 9.55707 84.2583
lradius 24.7114
lwrist -16.1434
lhand -13.4281 28.9234
lfingers 7.12502
lthumb 12.6805 58.5184
rfemur -20.9345 -3.62361 17.1745
rtibia 70.0598
rfoot -0.881277 -5.68398
rtoes 11.2279
lfemur -11.0978 0.465825 -29.7947
ltibia 24.2721
lfoot -8.95516 -1.11935
ltoes 6.98719
72
root -7.91999 17.4886 -19.6524 -1.71297 -3.88904 3.42628
lowerback 6.0705 -0.200576 -3.64876
upperback 0.766536 -0.472547 1.3125
thorax -2.57271 -0.194727 3.44637
lowerneck -14.325 -2.72391 -9.93096
upperneck 23.4287 -2.42046 4.25379
head 10.0038 -1.52259 2.85709
rclavicle 7.62836e-015 0
rhumerus -29.894 -17.435 -76.5363
rradius 27.2392
rwrist 10.7012
rhand -15.2907 13.1202
rfingers 7.12502
rthumb 10.8844 -16.5777
lclavicle 7.62836e-015 0
lhumerus -31.3388 9.19381 84.5042
lradius 25.4701
lwrist -14.7216
lhand -13.1531 31.1936
lfingers 7.12502
lthumb 12.9456 60.772
rfemur -22.2326 -3.52705 16.9687
rtibia 69.6817
rfoot -2.09399 -5.04498
rtoes 9.49398
lfemur -11.1093 0.477323 -30.0328
ltibia 24.7585
lfoot -9.46681 -1.29869
ltoes 7.65098
73
root -7.9199 17.4774 -19.5079 -1.67891 -3.75369 3.54053
lowerback 6.13642 -0.262172 -3.77337
upperback 0.723158 -0.566007 1.30089
thorax -2.64528 -0.237753 3.51344
lowerneck -14.3891 -2.68546 -9.90186
upperneck 23.5665 -2.37372 4.2722
head 10.0612 -1.49867 2.86683
rclavicle 3.77691e-015 1.66979e-014
rhumerus -30.1345 -17.3931 -76.5258
rradius 27.2734
rwrist 10.5019
rhand -15.4003 12.7211
rfingers 7.12502
rthumb 10.7786 -16.9823
lclavicle 3.77691e-015 1.66979e-014
lhumerus -31.212 8.4402 84.7013
lradius 26.3283
lwrist -12.791
lhand -12.8766 36.1312
lfingers 7.12502
lthumb 13.2121 65.6925
rfemur -23.254 -3.37978 16.7883
rtibia 69.0771
rfoot -3.64824 -4.54264
rtoes 6.81991
lfemur -10.9451 0.595239 -30.2313
ltibia 25.2718
lfoot -9.79295 -1.39787
ltoes 7.54563
